PathFileType	4	(X/Y/Z)	Patient4_TMGait_0pt7_01_left_19.trc.trc
DataRate	CameraRate	NumFrames	NumMarkers	Units	OrigDataRate	OrigDataStartFrame	OrigNumFrames
86.419753086420	86.419753086420	4	33	mm	86.419753086420	36	       141
Frame#	Time	Sacral			L.Shoulder			Chest			R.Shoulder			Neck			R.ASIS			L.ASIS			R.Thigh.Superior			R.Thigh.Lateral			R.Thigh.Inferior			R.Patella			L.Thigh.Superior			L.Thigh.Lateral			L.Thigh.Inferior			L.Patella			L.Shank.Superior			L.Shank.Lateral			L.Shank.Inferior			R.Shank.Superior			R.Shank.Lateral			R.Shank.Inferior			R.Heel			R.Midfoot.Superior			R.Midfoot.Lateral			R.Toe			L.Heel			L.Midfoot.Lateral			L.Midfoot.Superior			L.Toe			L.Elbow			L.Wrist			R.Elbow			R.Wrist			
		X1	Y1	Z1	X2	Y2	Z2	X3	Y3	Z3	X4	Y4	Z4	X5	Y5	Z5	X6	Y6	Z6	X7	Y7	Z7	X8	Y8	Z8	X9	Y9	Z9	X10	Y10	Z10	X11	Y11	Z11	X12	Y12	Z12	X13	Y13	Z13	X14	Y14	Z14	X15	Y15	Z15	X16	Y16	Z16	X17	Y17	Z17	X18	Y18	Z18	X19	Y19	Z19	X20	Y20	Z20	X21	Y21	Z21	X22	Y22	Z22	X23	Y23	Z23	X24	Y24	Z24	X25	Y25	Z25	X26	Y26	Z26	X27	Y27	Z27	X28	Y28	Z28	X29	Y29	Z29	X30	Y30	Z30	X31	Y31	Z31	X32	Y32	Z32	X33	Y33	Z33	

36	22.205000000000	841.204677952880	996.715328484447	478.036250236231	1007.008214581670	1422.705580692432	293.393821176452	1122.760236919532	1350.763741774051	445.618933099010	1055.361261153890	1428.344653445514	624.203171721704	1026.342864727746	1483.208072123878	447.897763902906	1069.397489753749	931.601988387873	588.051583786612	1050.104381005918	950.702066719326	313.997585878286	1076.079814497196	719.084046116626	567.518382628606	975.958029627165	622.337300057135	629.121421042785	1045.324710130800	554.012890389840	555.954667554360	1025.212559661675	451.865819412676	570.863960190515	1129.566482555733	766.713005345954	348.271414839401	1070.777537932267	636.606004096447	279.616367985457	1170.222364261714	574.626859265252	341.814738828531	1185.333243644958	502.633664965132	347.439629324773	1161.934296911202	427.004271592927	337.802059428570	1080.464217953048	308.628996021858	282.768441161044	1140.548036197431	198.833583441625	348.963074810909	954.803122670560	382.714349148067	576.864144787297	842.818859464749	324.513398357248	638.123968832648	839.840325533310	217.297161529603	582.419695336434	646.726781885872	109.591716091335	557.707025584359	826.355130225748	105.919485873263	592.225724057620	723.812672893258	71.398718599150	628.616836843351	921.652705796412	36.475431913506	612.845681356866	1022.511738339282	38.520864875698	385.045689314589	1096.130426701199	36.323481773441	303.888133849751	1177.789304435932	98.446912947434	331.070488662200	1306.721785221871	49.033312404608	301.239406970803	866.762940626296	1099.349220356373	199.598114464707	820.233034236495	843.913664634294	212.476157940690	1172.584338880079	1110.849701638975	744.749326388115	1324.481117595989	1256.968019419149	613.285493087900	
37	22.216571428571	841.984290173232	997.820967416890	474.861977602978	1007.363703834863	1424.355891853371	290.798969171920	1123.061534048613	1352.420823310090	443.037202623028	1055.341452880347	1429.608442456966	621.767704739751	1026.373631603556	1484.638113600178	445.400393231389	1070.259581034467	932.847914445315	584.507613462373	1050.913441563883	952.399626384607	310.657289956692	1080.533583262979	720.844080976696	565.037559478647	982.856325784918	622.731484385103	627.449053342213	1054.144877272272	554.977404425516	554.924606430933	1035.052334242093	451.371386838545	571.746199312621	1129.489854633549	766.472414283829	344.509538007315	1068.347243773281	636.374853814863	277.699529717177	1167.330608360944	573.656132676744	339.799543967880	1181.662783710726	501.853822595364	346.390856785607	1157.658456908365	426.279540244059	336.937638961537	1075.259200834193	308.521893951233	282.158065849321	1133.900371980946	198.419708635213	348.879898850113	962.160693104902	383.423892605330	577.640369982844	847.466265091651	329.573255216494	637.806014027318	841.996894332057	221.724674254655	583.621389149307	645.520838408739	122.663991030373	558.237020068122	824.196063257413	107.946287019954	593.399703014483	719.708922395728	79.194242350458	628.861845787144	913.736139874253	35.819481811434	612.704102083766	1014.472226883853	38.482862363060	385.001500580655	1088.081411492635	36.321943635728	303.849628763633	1169.742587253052	98.429901491984	331.124182335336	1298.680569551804	49.040623111187	301.155777073819	872.811216791754	1098.046090733847	195.897722336226	834.645148851057	841.109896440433	207.895311202428	1161.895761874501	1108.284372716784	744.912038853054	1318.921158506915	1248.871960901482	613.262561005824	
38	22.228142857143	842.660878730684	998.787658859208	471.707946273782	1007.805030716187	1425.959335545379	288.211707526157	1123.309685697295	1353.999383076730	440.539410902287	1055.083823091790	1430.757027332592	619.371454566424	1026.264624280672	1485.966256022300	442.925811652679	1071.018465506327	933.987813511669	581.062881401019	1051.660715705172	953.915395444673	307.446951964306	1085.447776962429	722.714939027659	562.698848379901	990.508319681986	623.106506357361	625.992325646188	1063.762905791852	556.088057069161	554.010286958350	1045.745733688859	451.126892143455	572.566723860051	1129.105779970929	765.922792654674	340.939515987030	1065.736766061490	636.110050008704	275.727352414364	1164.098833414961	572.596214269766	337.891021295449	1177.593876779203	500.968231502615	345.278618210399	1153.029363640471	425.479331031495	335.969765300804	1069.755204542459	308.272239057201	281.506218611726	1127.067551759833	197.940640972483	348.754745095264	970.551163956596	384.278059280827	578.391673802452	853.279003502640	334.953585453531	637.502402997577	845.229931632049	226.564472892051	584.847689080977	645.876276592368	136.990468256486	558.678709922012	822.712581643582	110.380591049444	594.524494485755	716.534055372295	88.129355701545	629.037824360860	905.824859391056	34.881125846036	612.639943406772	1006.350298750370	38.426719983599	384.982747202696	1079.956530028549	36.262968740380	303.837685268844	1161.661178272665	98.316105405568	331.205864898668	1290.602961834728	48.842066345962	301.132989382332	878.877741268615	1096.910237200795	192.104707795023	850.264603211578	838.607258721201	203.189252236439	1150.331486142997	1105.816931179201	744.853054515831	1313.791692103581	1239.320574971640	613.498688922164	
39	22.239714285714	843.209679086107	999.569354051837	468.614980362225	1008.331206547462	1427.445188010708	285.645140748254	1123.502623007077	1355.428395750957	438.146096831437	1054.601771020492	1431.757608327493	617.024645616181	1026.041760769618	1487.150251750189	440.478327623930	1071.661502333211	934.979693712535	577.754053354214	1052.312615250314	955.218735431017	304.374098286919	1090.740200924724	724.706708387689	560.488743931455	998.818227641473	623.501137979450	624.731460001125	1074.034153692539	557.392641639122	553.159257463945	1057.174002020982	451.177965298396	573.226988406015	1128.436238294745	765.146921454079	337.620431801233	1063.064946873578	635.871081806076	273.676039268814	1160.625508608515	571.505090832014	336.067026095484	1173.232423528413	500.012075996479	344.064176442276	1148.151422598342	424.623380106647	334.887315240784	1064.059523260608	307.912079982854	280.759813659660	1120.101599303780	197.411505594096	348.570687873381	979.873448771881	385.307256405312	579.007014277759	860.227573186349	340.602832120139	637.171009369571	849.512760448765	231.796006429636	586.006763058474	647.900537167036	152.410542320102	558.972335807424	821.934099087906	113.314217261288	595.544160230991	714.418099500077	98.188051078152	629.107396864530	898.014051886747	33.649007326684	612.687547617203	998.178275372769	38.365478893944	384.968846437331	1071.785374869669	36.165572373323	303.830033690533	1153.566049357649	98.132321121345	331.291001645317	1282.511353123469	48.483374518189	301.145453731035	884.955459214801	1095.878003462628	188.229917079632	867.038466221409	836.466459873532	198.381542776540	1138.011773988283	1103.471538677314	744.503762027256	1309.029629106438	1228.245176449419	614.059562855063	
